<?xml version="1.0" encoding="utf-8"?>
<!-- Generator: Adobe Illustrator 23.0.6, SVG Export Plug-In . SVG Version: 6.00 Build 0)  -->
<svg version="1.1" id="Layer_1" xmlns="http://www.w3.org/2000/svg" xmlns:xlink="http://www.w3.org/1999/xlink" x="0px" y="0px"
	 viewBox="0 0 612 792" style="enable-background:new 0 0 612 792;" xml:space="preserve">
<style type="text/css">
	.st0{fill:#B12025;}
	.st1{fill:#FAC816;}
	.st2{fill:#4C6CB1;}
	.st3{fill:#010438;}
	.st4{fill:#010338;}
</style>
<path class="st0" d="M550.62,369.92c-6.4,10.77-12.8,21.54-19.32,32.52c-0.52-0.62-0.93-1.1-1.32-1.61
	c-2.88-3.71-6.06-7.13-9.72-10.08c-1.67-1.34-3.44-2.54-5.32-3.57c-7.06-3.9-11.54-9.97-14.43-17.34c-0.19-0.48-0.43-0.99-0.11-1.73
	c5.98,0,12.04,0,18.43,0c-1.95-4.61-3.78-8.94-5.6-13.25c0.59-0.44,1.08-0.13,1.57,0c3.56,0.9,7.11,1.85,10.75,2.36
	c3.51,0.49,6.92,0.08,10.27-1.03c0.32-0.1,0.62-0.26,0.92-0.4c4.24-2.04,5.21-6.48,2.19-10.13c-1.94-2.35-4.57-3.43-7.5-3.82
	c-3.21-0.43-6.4-0.13-9.52,0.75c-4.99,1.41-9.97,2.88-14.96,4.31c-0.18,0.05-0.39,0.02-0.61,0.03c0.22-0.41,0.59-0.24,0.88-0.31
	c5.29-1.33,9.31-4.76,13.3-8.17c5.56-4.76,10.28-10.27,14.07-16.56c4.25-7.07,6.91-14.7,7.94-22.87c0.71-5.58,0.74-11.16-0.38-16.71
	c-2.06-10.21-7.61-17.93-16.61-23.13c-6.53-3.77-13.61-5.66-21.14-6.08c-7.53-0.42-14.76,0.75-21.62,3.88
	c-8.93,4.07-14.82,10.97-18.04,20.13c-2.5,7.12-3.44,14.53-2.8,22.05c0.73,8.66,3.72,16.6,8.46,23.88
	c6.41,9.84,14.8,17.65,24.6,24.03c1.27,0.83,2.6,1.53,4.27,1.94c-0.97,0.73-1.7,0.14-2.37-0.05c-4.61-1.34-9.18-2.83-13.81-4.11
	c-3.35-0.93-6.77-1.59-10.28-1.43c-2.44,0.11-4.76,0.64-6.86,1.94c-1.89,1.17-3.23,2.76-3.84,4.94c-0.77,2.75,0.07,5.08,2.47,6.59
	c2.33,1.46,4.96,1.92,7.63,2.18c3.31,0.32,6.53-0.27,9.72-1.03c2.26-0.54,4.51-1.1,7.08-1.72c-0.97,2.1-1.82,3.94-2.68,5.79
	c-0.87,1.87-1.74,3.75-2.59,5.57c0.46,0.63,1.04,0.43,1.55,0.43c2.88,0.02,5.75,0.04,8.63-0.01c1.04-0.02,1.39,0.31,1.72,1.37
	c2.81,9.25,8.13,16.66,16.6,21.5c6.55,3.74,11.47,9.09,15.86,15.06c0.66,0.89,0.22,1.48-0.18,2.15c-3,5.06-6.01,10.11-9.02,15.16
	c-1.2,2.01-2.41,4.01-3.57,6.04c-0.45,0.79-0.99,1.08-1.91,1.08c-7.49-0.04-14.98-0.06-22.47,0.02c-1.29,0.01-1.72-0.7-2.26-1.57
	c-8.91-14.37-17.82-28.73-26.74-43.09c-2.5-4.03-4.99-8.07-7.49-12.1c-0.24-0.39-0.51-0.75-0.9-1.34c-0.34,0.88-0.22,1.59-0.22,2.27
	c-0.01,22.8,0,45.61-0.01,68.41c0,2.65,0.47,2.51-2.41,2.51c-15.72,0-31.43,0-47.15,0c-2.41,0-2.19,0.18-2.19-2.12
	c0-54.64,0-109.27,0-163.91c0-0.2,0-0.4,0-0.6c0.04-1.47,0.04-1.48,1.59-1.5c1.27-0.02,2.54,0,3.81,0c12.97,0,25.95,0.05,38.92-0.05
	c1.81-0.01,2.75,0.58,3.61,2.08c2.02,3.54,4.21,6.98,6.35,10.45c0.34,0.56,0.59,1.2,1.31,1.74c0.25-2.08,0.45-4.02,0.71-5.95
	c0.93-6.75,3-13.11,6.66-18.9c4.71-7.45,11.39-12.4,19.6-15.41c6.35-2.32,12.93-3.36,19.65-3.04c10.93,0.51,21.01,3.61,29.66,10.55
	c7.57,6.08,11.87,14.07,13.48,23.58c0.47,2.8,0.79,5.61,1.05,8.54c0.95-1.57,1.92-3.13,2.86-4.7c1.51-2.52,3.04-5.03,4.49-7.59
	c0.52-0.91,1.1-1.32,2.2-1.32c14.58,0.04,29.16,0.02,43.74,0.03c1.43,0,1.43,0.03,1.47,1.42c0,0.13,0,0.27,0,0.4
	c0.05,11.03,0.12,22.06,0.14,33.09c0.05,20.13,0.08,40.25,0.12,60.38c0.02,11.84,0.04,23.67,0.07,35.51
	c0.02,11.7,0.05,23.4,0.06,35.11c0,2.45,0.29,2.21-2.29,2.21c-15.72,0.01-31.43,0-47.15,0c-2.33,0-2.19,0.18-2.2-2.14
	c-0.06-13.84-0.12-27.68-0.19-41.52c-0.02-5.08,0.05-10.17-0.09-15.24c-0.15-5.15-0.07-10.29-0.12-15.44c0-0.39-0.06-0.77-0.09-1.16
	C550.89,369.99,550.75,369.96,550.62,369.92z"/>
<path class="st1" d="M128.43,416.45c0.31-2.99,0.62-5.98,0.94-8.96c0.2-1.79,0.51-3.58,0.61-5.37c0.06-1.15,0.54-1.77,1.52-2.32
	c9.6-5.35,15.7-13.39,17.87-24.17c2.18-10.84-0.25-20.73-7.15-29.38c-5.6-7.02-12.95-11.32-21.81-12.77
	c-19.77-3.22-37.27,10.11-40.58,27.96c-2.78,15.03,2.21,27.2,14.5,36.33c1.23,0.91,2.59,1.66,3.95,2.35c0.86,0.44,1.34,1,1.5,1.93
	c0.68,4.08,1.41,8.16,2.08,12.24c0.32,1.94,0.28,1.96-1.79,1.97c-5.02,0.01-10.03-0.01-15.05,0.01c-2.53,0.01-2.11-0.35-3.09,2.18
	c-3.27,8.41-6.48,16.83-9.72,25.25c-0.72,1.86-0.73,1.86-2.71,1.86c-17.85,0-35.71,0-53.56,0c-0.13,0-0.27,0-0.4,0
	c-1.73-0.04-1.75-0.05-1.03-1.68c4.49-10.28,9-20.56,13.49-30.84c9.12-20.87,18.24-41.75,27.37-62.61c0.45-1.02,0.59-2.52,1.57-2.89
	c0.99-0.37,2.06,0.73,3.06,1.2c5.31,2.52,10.58,5.11,15.87,7.67c1.49,0.72,1.53,0.74,2.2-0.71c0.5-1.08,1.63-2.21,1.29-3.24
	c-0.34-1.04-1.93-1.27-2.99-1.78c-5.41-2.62-10.83-5.21-16.24-7.82c-0.57-0.28-1.29-0.41-0.85-1.41c2.09-4.69,4.12-9.41,6.16-14.08
	c0.92-0.01,1.27,0.66,1.74,1.08c5.28,4.72,10.54,9.47,15.8,14.21c0.25,0.22,0.49,0.45,0.75,0.67c1.79,1.55,1.49,1.28,2.75-0.14
	c0.73-0.83,2.04-1.54,1.95-2.61c-0.08-0.95-1.4-1.51-2.18-2.22c-5.4-4.89-10.82-9.76-16.23-14.63c-0.29-0.26-0.6-0.49-0.89-0.73
	c-1.01,0.58-1.42,1.69-2.39,2.18c-0.29-0.56,0.08-0.94,0.26-1.35c6.47-14.81,12.94-29.63,19.41-44.44c0.13-0.31,0.3-0.6,0.41-0.91
	c0.27-0.79,0.76-1.23,1.64-1.14c0.33,0.03,0.67,0,1,0c17.12,0,34.24,0.03,51.36-0.04c1.67-0.01,2.46,0.54,3.11,2.04
	c6.26,14.47,12.6,28.9,18.9,43.35c0.25,0.58,0.76,1.14,0.47,1.87l0.03-0.04c-0.59-0.11-0.83-0.64-1.18-1.02
	c-1.55-1.67-1.32-1.49-2.92-0.07c-1.55,1.38-3.09,2.76-4.63,4.14c-4.12,3.71-8.25,7.42-12.36,11.14c-1.17,1.06-1.2,1.1-0.05,2.3
	c0.82,0.85,1.36,2.35,2.54,2.37c1.04,0.01,1.78-1.29,2.62-2.04c4.74-4.23,9.44-8.5,14.15-12.75c0.84-0.75,1.69-1.49,2.49-2.19
	c0.69,0.17,0.78,0.68,0.95,1.07c1.73,3.91,3.45,7.82,5.15,11.74c0.6,1.38,0.59,1.42-0.77,2.07c-5.83,2.82-11.67,5.63-17.5,8.44
	c-0.18,0.09-0.36,0.17-0.55,0.24c-0.95,0.33-1.26,0.87-0.71,1.81c0.37,0.63,0.61,1.33,0.95,1.99c0.89,1.74,0.54,1.8,2.43,0.89
	c4.15-2,8.3-4.01,12.44-6.01c1.68-0.81,3.36-1.63,5.06-2.43c1.38-0.64,1.41-0.64,2.02,0.76c2.35,5.32,4.68,10.64,7.01,15.96
	c8.67,19.83,17.32,39.66,25.99,59.5c3.07,7.04,6.15,14.08,9.22,21.12c0.23,0.54,0.42,1.09,0.63,1.62c-0.59,0.55-1.22,0.35-1.79,0.36
	c-18.26,0.01-36.51,0.01-54.77,0.01c-1.88,0-1.9-0.01-2.58-1.77c-3.3-8.53-6.58-17.07-9.89-25.6c-0.74-1.91-0.26-1.92-2.65-1.92
	c-4.81,0-9.63,0-14.44,0c-0.6,0-1.21-0.09-1.79,0.14L128.43,416.45z M112.01,316.23c0,1.27,0,2.53,0,3.8c0,2.93,0.04,5.87-0.02,8.8
	c-0.02,1.04,0.32,1.45,1.37,1.38c1-0.06,2-0.04,3-0.01c0.79,0.02,1.08-0.35,1.05-1.09c-0.02-0.47,0-0.93,0-1.4
	c0-7.14,0.02-14.27-0.02-21.41c-0.01-1.24,0.59-2.83-0.34-3.64c-0.8-0.69-2.31-0.2-3.5-0.2c-1.51,0-1.53,0.03-1.53,1.55
	C112,308.09,112.01,312.16,112.01,316.23z M101.48,331.55c-0.24-0.54-0.37-0.85-0.52-1.14c-2.86-5.81-5.73-11.61-8.59-17.41
	c-0.59-1.2-1.19-2.39-1.78-3.59c-0.28-0.57-0.67-0.79-1.28-0.48c-0.84,0.41-1.7,0.78-2.53,1.2c-1.44,0.72-1.45,0.75-0.73,2.22
	c2.2,4.49,4.43,8.98,6.64,13.47c1.15,2.33,2.32,4.66,3.43,7.01c0.4,0.84,0.81,1.1,1.68,0.6
	C98.95,332.76,100.16,332.22,101.48,331.55z M138.43,307.68c-0.71,0.12-0.81,0.78-1.04,1.29c-2.77,6.28-5.53,12.56-8.29,18.85
	c-0.35,0.79-0.71,1.58-1.06,2.37c-0.26,0.59-0.12,1,0.53,1.25c0.8,0.32,1.57,0.73,2.37,1.06c1.6,0.68,1.63,0.68,2.33-0.89
	c2.27-5.12,4.52-10.24,6.78-15.36c0.81-1.83,1.62-3.66,2.41-5.49c0.17-0.4,0.62-0.91,0.02-1.22
	C141.18,308.88,139.83,308.31,138.43,307.68z"/>
<path class="st2" d="M360.6,329.94c3.39,2.05,6.65,4.13,9.7,6.52c3.16,2.48,6.11,5.16,8.54,8.39c4.54,6.03,4.57,12.42,1.55,19.05
	c-0.98,2.14-2.7,3.6-4.66,4.92c1.05,2.43,1.95,4.83,2.35,7.42c0.85,5.49-0.52,10.43-3.34,15.09c-1.72,2.83-3.97,5.19-6.33,7.47
	c-0.28,0.27-0.64,0.5-0.76,1.04c3.08,2.76,6.21,5.57,9.34,8.37c2.44,2.18,4.89,4.36,7.33,6.55c1.1,0.99,1.1,1.01,0.17,2.19
	c-7.2,9.11-16,16.26-26.29,21.6c-10.75,5.58-22.19,8.73-34.2,10.06c-6.53,0.73-13.07,0.95-19.61,0.65
	c-18.61-0.86-35.95-5.86-51.42-16.46c-17.88-12.24-29.29-29.01-34.25-50.09c-2.52-10.69-2.93-21.53-1.7-32.46
	c1.7-15.08,6.92-28.76,15.96-40.96c9.09-12.27,20.87-21.15,34.78-27.27c9.62-4.23,19.68-6.73,30.14-7.77
	c15.47-1.54,30.7-0.45,45.58,4.15c16.12,4.98,29.72,13.82,40.44,26.94c1.58,1.93,1.59,1.91-0.25,3.55
	c-7.23,6.45-14.47,12.9-21.69,19.36C361.49,328.69,360.85,329.02,360.6,329.94z M367.65,365.93c1.12-0.66,2.16-0.47,3.12-0.53
	c2.28-0.16,3.96-1.3,5.09-3.12c2.15-3.45,2.84-9.84-0.38-14c-2.85-3.69-6.24-6.76-9.95-9.51c-2.78-2.07-5.77-3.82-8.95-5.65
	c1.22-1.12,2.32-2.13,3.45-3.17c-0.31-0.28-0.44-0.45-0.6-0.54c-5.72-3.22-11.65-5.95-18.07-7.51c-2.55-0.62-5.13-0.71-7.76-0.35
	c-5.03,0.69-9.43,2.82-13.58,5.6c-1.81,1.22-1.81,1.23-2.88-0.73c-1.88-3.46-4.7-5.14-8.71-4.77c-3.24,0.3-6.01,1.69-8.65,3.44
	c-0.64,0.42-1.26,0.87-1.92,1.33c-0.34-0.53-0.59-0.92-0.85-1.31c-2.58-3.88-6.07-6.6-10.55-7.84c-7.02-1.94-13.65-0.77-19.74,3.17
	c-2.72,1.76-4.5,4.33-5.54,7.4c-1.1,3.25-1.1,6.57-0.61,9.9c0.33,2.28,0.39,2.26-1.51,3.47c-1.07,0.69-2.13,1.38-3.15,2.14
	c-2.53,1.88-4.89,3.94-6.73,6.54c-3.28,4.63-2.92,9.09,1.03,13.21c2.39,2.49,5.22,4.36,8.21,6.02c0.5,0.28,1.15,0.39,1.46,1.08
	c-1.21,1.73-2.18,3.61-2.72,5.71c-0.95,3.7-0.88,7.41-0.05,11.11c1.15,5.14,4.33,8.44,9.25,10.17c1.66,0.58,3.38,0.82,5.1,0.98
	c0.94,0.09,1.56,0.36,2.06,1.23c1.63,2.85,4.15,4.67,7.2,5.77c4.64,1.67,9.4,1.85,14.22,0.98c5.78-1.05,10.67-3.8,14.7-8.02
	c0.83-0.87,1.44-0.98,2.32-0.29c0.21,0.16,0.47,0.25,0.71,0.37c9.06,4.75,18.53,8.28,28.81,9.18c6.78,0.6,13.34-0.26,19.47-3.4
	c2.24-1.15,4.34-2.5,6.21-4.36c-1.16-1.09-2.2-2.08-3.42-3.24c0.57-0.46,0.99-0.79,1.39-1.14c2.86-2.48,5.19-5.38,6.78-8.83
	c2.86-6.21,2.18-12.06-1.89-17.53C369.33,367.96,368.55,367.05,367.65,365.93z M308.08,403.67c-3.03,0.04-5.64,0.74-7.95,2.38
	c-5.33,3.78-5.74,11.03-0.87,15.19c4.77,4.07,12.26,4.1,16.98,0c4.3-3.73,4.62-9.78,0.65-13.86
	C314.42,404.82,311.32,403.83,308.08,403.67z M295.39,423.07c0.02-2.45-0.97-4.43-2.72-6.03c-3.8-3.48-10.02-3.91-14.28-1.02
	c-5.17,3.51-5.33,10.1-0.33,13.78c4.25,3.13,10.75,2.81,14.61-0.76C294.41,427.44,295.42,425.47,295.39,423.07z M263.63,421.54
	c-2.77,0-5.13,0.88-6.76,2.52c-2.32,2.34-2.28,5.74,0.09,8.03c3.29,3.18,9.9,3.22,13.26,0.08c2.68-2.51,2.57-6.23-0.26-8.56
	C268.12,422.1,265.96,421.54,263.63,421.54z"/>
<path class="st3" d="M323.46,471.26c11.09,0,22.19-0.02,33.28,0.01c3.69,0.01,7.31,0.63,10.72,2.1c5.67,2.45,8.53,6.84,8.57,12.98
	c0.06,9.09-0.07,18.18,0.04,27.27c0.09,7.08-3.77,12.08-10.34,14.19c-2.54,0.82-5.16,1.24-7.84,1.4
	c-8.94,0.51-17.89,0.17-26.84,0.22c-13.57,0.07-27.14,0.02-40.7,0.02c-0.4,0-0.8,0.01-1.2,0c-1.49-0.03-1.51-0.03-1.51-1.57
	c-0.01-6.75,0-13.5,0-20.25c0-0.47-0.04-0.94,0.01-1.4c0.09-0.91-0.37-1.12-1.18-1.11c-2.2,0.04-4.41,0.02-6.62,0.01
	c-1.41-0.01-1.43-0.02-1.43-1.39c-0.01-3.27,0.03-6.55-0.02-9.82c-0.02-0.96,0.26-1.28,1.24-1.25c2.2,0.07,4.41,0.03,6.62,0.02
	c1.36-0.01,1.39-0.03,1.39-1.46c0.01-5.75,0-11.5,0-17.24c0-0.4-0.01-0.8,0-1.2c0.02-1.48,0.03-1.51,1.54-1.51
	C300.6,471.25,312.03,471.26,323.46,471.26z M330.64,515.39c7.09,0,14.17-0.01,21.26,0.01c1.08,0,2.12-0.11,3.14-0.48
	c1.84-0.67,2.41-1.43,2.41-3.41c0.01-7.42,0.01-14.84,0-22.26c0-1.86-0.7-2.8-2.42-3.46c-1.21-0.46-2.48-0.48-3.75-0.48
	c-13.84,0-27.67,0-41.51,0c-0.13,0-0.27,0-0.4,0c-1.75,0-1.67-0.14-1.67,1.58c0,1.4,0,2.81,0,4.21c0,1.73-0.1,1.59,1.65,1.59
	c4.75,0,9.49-0.01,14.24,0c1.48,0,1.5,0.02,1.5,1.54c0.01,3.01,0.01,6.02,0,9.02c-0.01,2.16,0.26,1.86-1.95,1.87
	c-4.61,0.01-9.22,0.01-13.84,0c-1.68,0-1.6-0.13-1.59,1.66c0,2.34-0.01,4.68,0,7.02c0.01,1.58,0.02,1.6,1.68,1.6
	C316.47,515.4,323.56,515.39,330.64,515.39z"/>
<path class="st4" d="M432.63,486.01c0,5.05,0,9.8,0,14.54c0,9.02,0,18.05,0,27.07c0,1.54-0.02,1.56-1.46,1.57
	c-5.75,0.01-11.5-0.01-17.25,0.02c-0.99,0.01-1.53-0.21-1.37-1.32c0.07-0.46,0.01-0.93,0.01-1.4c0-17.58,0-35.16,0-52.74
	c0-0.47,0.03-0.94-0.01-1.4c-0.06-0.75,0.21-1.14,1.01-1.09c0.47,0.03,0.94,0,1.4,0c10.09,0,20.19,0.03,30.28-0.03
	c1.59-0.01,2.72,0.34,3.73,1.69c1.24,1.64,2.81,3.03,4.24,4.53c5.67,5.94,11.35,11.87,17.01,17.81c4.87,5.12,9.73,10.26,14.59,15.39
	c1.03,1.09,1.87,2.37,3.45,3.37c0-0.81,0-1.38,0-1.95c0-12.7,0-25.4,0-38.1c0-0.4-0.01-0.8,0-1.2c0.02-1.48,0.03-1.5,1.54-1.5
	c5.75-0.01,11.5-0.01,17.25,0c1.38,0,1.4,0.03,1.4,1.44c0.01,18.38,0,36.77,0.02,55.15c0,0.98-0.18,1.38-1.3,1.38
	c-10.76-0.04-21.52-0.03-32.29-0.02c-0.71,0-1.21-0.19-1.73-0.75c-2.84-3.09-5.73-6.14-8.62-9.19c-6.1-6.44-12.21-12.89-18.33-19.32
	c-3.22-3.39-6.45-6.76-9.72-10.11C435.31,488.62,434.37,487.14,432.63,486.01z"/>
<path class="st3" d="M69.02,471.26c10.7,0,21.4,0,32.09,0c0.47,0,0.94,0.05,1.4-0.01c0.94-0.11,1.1,0.37,1.09,1.18
	c-0.03,4.01-0.04,8.02,0,12.04c0.01,0.95-0.27,1.37-1.26,1.25c-0.46-0.06-0.93-0.01-1.4-0.01c-19.66,0-39.32,0-58.97,0
	c-1.2,0-2.39,0.03-3.54,0.49c-1.68,0.67-2.24,1.34-2.24,3.11c-0.02,7.42-0.02,14.84,0,22.27c0.01,2.02,0.86,2.96,2.83,3.15
	c1.52,0.15,3.04,0.29,4.58,0.29c11.5-0.03,23-0.03,34.5,0c1.21,0,2.4-0.12,3.58-0.29c2.48-0.37,3.45-1.53,3.45-4
	c0-1.27,0-2.54,0-3.81c0-2.05,0.09-1.77-1.87-1.77c-7.15-0.01-14.31,0-21.46,0c-0.47,0-0.94-0.02-1.4,0
	c-0.66,0.03-0.96-0.21-0.95-0.92c0.03-3.08,0.02-6.15,0.01-9.23c0-0.6,0.27-0.85,0.84-0.84c0.4,0.01,0.8-0.01,1.2-0.01
	c13.44,0,26.88,0,40.32,0c0.2,0,0.4,0,0.6,0c1.41,0.04,1.44,0.04,1.44,1.45c0.01,6.08,0.01,12.17,0,18.25
	c0,0.93-0.15,1.86-0.21,2.78c-0.35,5.26-3.53,8.27-7.97,10.32c-2.2,1.01-4.57,1.45-6.95,1.76c-3.83,0.49-7.69,0.68-11.56,0.77
	c-8.42,0.2-16.84,0.12-25.26,0.13c-3.61,0-7.22,0.05-10.82-0.18c-4.5-0.3-9.04-0.37-13.42-1.77c-2.87-0.92-5.28-2.54-7.37-4.62
	c-1.95-1.93-2.67-4.46-2.69-7.11c-0.06-10.03-0.09-20.06,0-30.09c0.06-6.27,4.09-11.14,10.66-13.17c2.94-0.9,5.96-1.39,9.05-1.39
	C47.89,471.26,58.45,471.26,69.02,471.26z"/>
<path class="st3" d="M515.69,500.23c0-8.89,0-17.79,0-26.68c0-0.47,0.02-0.94,0-1.4c-0.02-0.57,0.2-0.89,0.8-0.88
	c0.27,0,0.53-0.01,0.8-0.01c6.09,0,12.17-0.01,18.26,0c1.38,0,1.4,0.03,1.4,1.44c0.01,5.89,0,11.77,0.01,17.66
	c0,1.75,0.02,1.77,1.73,1.77c13.91,0.01,27.82,0.01,41.73,0c1.72,0,1.73-0.02,1.74-1.76c0.01-5.82,0-11.64,0.01-17.45
	c0-1.62,0.02-1.64,1.6-1.64c6.02-0.01,12.04-0.01,18.06,0c1.59,0,1.6,0.03,1.6,1.69c0,18.26,0,36.51,0,54.77
	c0,1.69-0.02,1.72-1.57,1.72c-6.09,0.01-12.17,0.01-18.26,0c-1.4,0-1.43-0.03-1.43-1.45c-0.01-6.15,0-12.31-0.01-18.46
	c0-1.74-0.01-1.75-1.73-1.76c-13.91-0.01-27.82-0.01-41.73,0c-1.72,0-1.74,0.02-1.74,1.75c-0.01,6.09,0,12.17-0.01,18.26
	c0,1.63-0.02,1.65-1.63,1.65c-5.89,0.01-11.77,0-17.66,0c-2.19,0-1.98,0.06-1.98-1.93C515.68,518.42,515.69,509.33,515.69,500.23z"
	/>
<path class="st3" d="M239.16,529.29c-0.39,0.31-0.87,0.14-1.31,0.14c-6.82,0.01-13.64-0.02-20.45,0.03
	c-1.19,0.01-1.92-0.27-2.55-1.38c-1.37-2.44-2.99-4.74-4.41-7.15c-0.62-1.04-1.35-1.4-2.56-1.4c-12.77,0.04-25.53,0.06-38.3-0.02
	c-1.37-0.01-2.04,0.51-2.67,1.54c-1.55,2.49-3.17,4.94-4.72,7.43c-0.44,0.7-0.95,0.97-1.79,0.97c-7.29-0.04-14.57-0.03-21.86-0.04
	c-0.11,0-0.22-0.09-0.46-0.19c0.15-0.93,0.83-1.62,1.31-2.36c8.49-13.25,17.02-26.47,25.53-39.71c3.17-4.93,6.35-9.87,9.48-14.83
	c0.48-0.76,0.99-1.1,1.91-1.1c8.35,0.03,16.71,0.04,25.07-0.01c1.05-0.01,1.56,0.5,2.05,1.26c3.74,5.92,7.49,11.82,11.24,17.74
	c5.25,8.27,10.5,16.55,15.75,24.82c2.86,4.5,5.74,8.99,8.61,13.49C239.16,528.76,239.33,528.98,239.16,529.29z M201.44,506.63
	c-4.28-6.81-8.45-13.44-12.77-20.31c-4.35,6.82-8.54,13.46-12.77,20.31C184.56,506.63,192.87,506.63,201.44,506.63z"/>
<path class="st3" d="M111.21,500.24c0-9.09,0-18.17,0-27.26c0-1.71,0.01-1.73,1.74-1.73c6.08-0.01,12.16-0.01,18.24,0
	c1.53,0,1.55,0.03,1.55,1.51c0.01,18.37,0.01,36.74,0,55.12c0,1.52-0.03,1.55-1.54,1.55c-6.08,0.01-12.16,0.01-18.24,0
	c-1.74,0-1.75-0.02-1.75-1.74C111.21,518.55,111.21,509.39,111.21,500.24z"/>
<path class="st4" d="M383.54,500.06c0-8.75,0-17.5,0-26.25c0-0.4,0.04-0.81-0.01-1.2c-0.13-1.01,0.23-1.39,1.31-1.37
	c3.34,0.07,6.68,0.02,10.02,0.02c2.94,0,5.88,0.03,8.82-0.02c0.91-0.01,1.4,0.17,1.27,1.2c-0.07,0.59-0.01,1.2-0.01,1.8
	c0,17.44,0,34.87,0,52.31c0,0.33,0,0.67,0,1c0.01,2.01,0.1,1.89-1.8,1.89c-5.95,0-11.89,0-17.84,0c-1.74,0-1.76-0.01-1.76-1.72
	C383.54,518.5,383.54,509.28,383.54,500.06z"/>
<path class="st1" d="M126.34,380.86c-5.06-1.59-10.12-3.18-15.11-4.74c-0.11-0.77,0.35-0.79,0.74-0.83c0.4-0.05,0.8-0.04,1.2-0.04
	c9.69,0,19.39,0,29.08,0.01c0.52,0,1.07-0.14,1.67,0.28c-0.59,3.21-1.94,6.16-3.66,8.93c-3.19,5.13-7.53,9-13.05,11.47
	c-1.33,0.6-2.05,1.24-2.18,2.86c-0.34,4.32-0.98,8.62-1.46,12.93c-0.25,2.21-0.22,2.25-2.33,2.21c-1.12-0.02-2.52,0.48-3.3-0.24
	c-0.88-0.81-0.31-2.27-0.33-3.45c-0.05-3.54,0.07-7.09-0.06-10.63c-0.06-1.64,0.48-2.76,1.67-3.81c1.56-1.36,2.98-2.88,4.45-4.33
	c0.32-0.32,0.72-0.6,0.86-1.29c-2.83-1.04-5.67-2.08-8.81-3.23c3.76-1.99,7.22-3.82,10.68-5.66
	C126.36,381.16,126.35,381.01,126.34,380.86z"/>
<path class="st1" d="M103.55,375.24c-0.81,1.36-1.96,1.95-2.62,3.23c3.93,1.25,7.75,2.46,12.01,3.81c-3.64,1.94-6.9,3.67-10.57,5.63
	c4.37,1.58,8.4,3.04,12.42,4.49c-0.22,0.78-0.71,1.18-1.19,1.51c-1.12,0.78-1.35,1.81-1.33,3.11c0.06,5.08,0.03,10.15,0.02,15.23
	c0,1.66-0.02,1.66-1.63,1.7c-3.4,0.07-3.4,0.07-3.99-3.37c-0.67-3.95-1.37-7.89-2.02-11.83c-0.2-1.19-0.66-1.91-1.9-2.46
	c-8.41-3.68-14.09-9.91-16.95-18.67c-0.1-0.32-0.23-0.63-0.3-0.95c-0.27-1.22-0.16-1.4,1.13-1.41c4.54-0.03,9.09-0.01,13.63-0.01
	C101.24,375.24,102.23,375.24,103.55,375.24z"/>
<path class="st4" d="M394.29,544.44c-2.54,0-5.08-0.03-7.62,0.02c-0.85,0.02-1.17-0.21-1.15-1.11c0.05-2.74,0.05-5.48,0-8.22
	c-0.01-0.87,0.27-1.14,1.14-1.14c5.21,0.03,10.42,0.03,15.63,0c0.77,0,1.05,0.24,1.04,1.02c-0.03,2.81-0.04,5.61,0,8.42
	c0.01,0.79-0.27,1.03-1.04,1.02C399.64,544.42,396.96,544.44,394.29,544.44z"/>
<path class="st1" d="M114.54,421.79c3.27,0,6.53,0,9.8,0c2.07,0,2.07,0.01,2,2.13c0,0.13-0.01,0.27,0,0.4
	c0.05,0.7-0.31,0.94-0.96,0.93c-1.07-0.02-2.13,0-3.2,0c-6,0-12,0.01-17.99-0.01c-0.48,0-1.22,0.25-1.32-0.5
	c-0.12-0.9-0.35-1.88,0.17-2.71c0.26-0.42,0.87-0.23,1.32-0.23C107.75,421.79,111.15,421.79,114.54,421.79z"/>
<path class="st1" d="M114.57,431.92c-3.4,0-6.8,0.01-10.2-0.01c-1.56-0.01-1.56-0.03-1.59-1.53c-0.01-0.33,0.02-0.67,0-1
	c-0.04-0.7,0.32-0.94,0.97-0.93c1.13,0.02,2.27,0,3.4,0c5.93,0,11.86-0.01,17.79,0.01c0.48,0,1.22-0.25,1.32,0.5
	c0.11,0.9,0.35,1.88-0.17,2.71c-0.26,0.41-0.87,0.23-1.32,0.23C121.37,431.92,117.97,431.92,114.57,431.92z"/>
<path class="st1" d="M128.4,416.42c-0.18,2.81-0.18,2.81-2.95,2.81c-6.89,0-13.78,0-20.66,0c-2.4,0-2.4,0-2.38-2.65
	c0.41-0.32,0.89-0.22,1.35-0.22c7.89-0.01,15.78,0,23.67,0c0.33,0,0.66,0.06,1,0.09C128.43,416.45,128.4,416.42,128.4,416.42z"/>
<path class="st1" d="M114.63,434.48c3.41,0,6.82-0.01,10.23,0.01c1.29,0.01,2.01,1.26,1.4,2.42c-0.08,0.15-0.28,0.3-0.45,0.33
	c-0.32,0.06-0.66,0.06-1,0.06c-6.82,0-13.64,0.01-20.46,0c-1.58,0-1.53-0.06-1.6-1.52c-0.05-1.15,0.5-1.3,1.44-1.3
	C107.68,434.5,111.16,434.48,114.63,434.48z"/>
<path class="st1" d="M114.56,443.95c-1,0-1.99-0.03-2.99,0.01c-0.83,0.03-1.25-0.28-1.17-1.16c0.03-0.4,0.02-0.8,0-1.2
	c-0.02-0.67,0.3-0.96,0.96-0.96c2.13,0.01,4.25,0.01,6.38,0c0.65,0,0.99,0.27,0.97,0.95c-0.02,0.46-0.02,0.93,0,1.39
	c0.02,0.67-0.31,0.96-0.96,0.95C116.69,443.94,115.63,443.95,114.56,443.95C114.56,443.95,114.56,443.95,114.56,443.95z"/>
<path class="st1" d="M163.29,324.56c0.14-0.12,0.34-0.04,0.28,0.07c-0.2,0.36-0.2,0.02-0.25-0.1L163.29,324.56z"/>
</svg>
